<svg width="678" height="420" viewBox="0 0 678 420" fill="none" xmlns="http://www.w3.org/2000/svg">
<path opacity="0.07" d="M562.5 382.6C559.8 382.6 656.2 173.8 552.7 203.5C449.2 233.2 432.3 242.1 450.1 171.6C467.9 101.1 413.5 -62.1 328.8 48.5C244.1 159.1 126.3 91.3 112 152.9C97.7001 214.5 165.5 228.7 122.7 255.5C79.9001 282.3 106.6 382.6 106.6 382.6H562.5Z" fill="#2A94F4"/>
<path d="M656.2 405.8H32.4001C27.3001 405.8 23.1001 401.6 23.1001 396.5V388.4C23.1001 383.3 27.3001 379.1 32.4001 379.1H656.1C661.2 379.1 665.4 383.3 665.4 388.4V396.5C665.5 401.7 661.3 405.8 656.2 405.8Z" fill="#D3D3D3"/>
<path d="M177.3 327.7H221.7V380H177.3V327.7Z" fill="#FFBE55"/>
<path d="M178.6 375.1C168.5 375.1 160.2 366.9 160.2 356.7C160.2 346.5 168.4 338.3 178.6 338.3C188.8 338.3 197 346.5 197 356.7C197 366.9 188.8 375.1 178.6 375.1ZM178.6 342.4C170.7 342.4 164.2 348.8 164.2 356.8C164.2 364.8 170.6 371.2 178.6 371.2C186.6 371.2 193 364.8 193 356.8C193 348.8 186.5 342.4 178.6 342.4Z" fill="#FFBE55"/>
<g opacity="0.41">
<path d="M206.5 324.3C206 324.3 205.6 324.1 205.3 323.7C205.1 323.4 200.5 317.2 201.9 310.4C202.7 306.5 205.3 303.2 209.5 300.7C214.5 297.8 214.8 295.9 214.7 295.3C214.5 293.7 211.3 292.3 209.8 291.9C209 291.7 208.5 290.9 208.7 290.1C208.9 289.3 209.7 288.8 210.5 289C211.2 289.2 217 290.9 217.6 294.9C218 297.7 215.8 300.4 210.9 303.3C207.4 305.4 205.3 308 204.7 311C203.6 316.5 207.6 321.8 207.6 321.9C208.1 322.6 208 323.5 207.3 324C207.1 324.2 206.8 324.3 206.5 324.3Z" fill="#FFBE55"/>
</g>
<g opacity="0.41">
<path d="M190 322.8C189.3 322.8 188.7 322.3 188.5 321.7C188.3 320.9 188.8 320.1 189.6 319.9C191.8 319.4 192.1 318.8 192.1 318.8C192.1 318.4 191.6 316.9 183.4 312.1C181.1 310.8 180.8 309.2 180.8 308.1C181.1 303.1 192.1 298.2 194.3 297.3C195.1 297 195.9 297.3 196.3 298.1C196.6 298.9 196.3 299.7 195.5 300.1C190 302.5 183.9 306.3 183.8 308.4C183.8 308.8 184.1 309.2 184.9 309.6C191.6 313.5 195.5 316.4 195 319.3C194.6 321.8 191.3 322.6 190.3 322.9C190.2 322.8 190.1 322.8 190 322.8Z" fill="#FFBE55"/>
</g>
<g opacity="0.41">
<path d="M198.3 289.9C197.9 289.9 197.6 289.8 197.3 289.5C196.7 288.9 196.7 288 197.2 287.4C198 286.6 200.1 283.7 199.6 281.9C199.4 281.1 198.5 280.4 197.1 280C194.5 279.2 193.7 277.7 193.5 276.5C192.7 272.2 199.4 266.8 200.8 265.7C201.5 265.2 202.4 265.3 202.9 266C203.4 266.7 203.3 267.6 202.6 268.1C199.9 270.2 196.1 274.1 196.4 276C196.5 276.5 197 276.8 197.9 277.1C200.4 277.9 201.9 279.2 202.4 281.1C203.4 284.9 199.7 288.9 199.3 289.4C199.1 289.8 198.7 289.9 198.3 289.9Z" fill="#FFBE55"/>
</g>
<path d="M407.3 264.1C408.2 251.9 408.8 240.5 409.2 229.9C406.3 228.3 402.7 226.5 399.9 225.2C391.2 221 379 215.4 371.2 211.8C366.6 209.7 362.1 208.2 362.1 208.2C362.1 208.2 330.9 205.2 328.3 205.4C327.5 205.4 323.6 206.8 318.5 208.8C307.4 213 286.1 221.6 282.7 224C277.7 227.6 259.9 315 259.4 321C258.9 326.8 283.7 334.7 306.6 340.7C306.6 349.6 306.4 362 306.2 373.3C306.2 375.2 306.1 377.1 306.1 379H406.3C406.2 377.1 406 375.1 405.9 373.3V372.6C405.5 364.9 404 351.2 404.4 337.8C404.4 337.8 404.2 323.7 405.6 317.6C405.7 290.7 407.3 264.1 407.3 264.1ZM280.2 315.6C280.4 304.2 295.5 283 295.5 283L296.2 282.7L297 282.6L299.4 280.4C300 282.4 305 311 306.2 327.7C292 324.9 280.2 321 280.2 315.6Z" fill="#D3D3D3"/>
<path d="M409.2 373.3C408.5 368.6 407.9 363.8 407.4 359.2V359.1C407.2 357.6 407 356 406.9 354.5V354.3C406.2 347.9 405.6 341.8 405.1 336.2C404.8 331.9 405.1 327.7 405.7 323.6C407.4 294.9 408.3 264.6 408.3 264.6C409.2 252.2 409.7 240.6 410.1 229.8C410.1 229.8 370.9 211.3 367.3 210.2C367.3 210.2 374.7 227.7 380.3 266.7C382.4 281.7 386.4 306.9 389.3 332.7C390.9 346.6 393.8 360.8 396 373.3C396.3 375.2 396.7 377.1 397 379H410C409.7 377.1 409.4 375.2 409.2 373.3ZM343.9 327.2C345.4 312.7 346.8 298.2 346.2 290.3C340.8 226.5 325.5 209.6 323.3 207.1C321.6 207.8 315.1 210.2 313.1 211C302.6 215.1 281.3 222.7 278.4 224.8C273.4 228.4 253.8 320.1 253.2 326C252.8 330 278.5 338.4 304.6 345.9C304.4 353.1 305 363.2 302.7 373.8C302.3 375.7 301.7 376.9 301.6 379.3L338 379C338.2 377.1 338.5 375.2 338.7 373.3C339.4 367.6 340.1 361.8 340.8 355.5C351.7 358.3 359.2 360.2 359.2 360.2C359.2 360.2 369.5 342.8 372.5 335.8C372.9 334.6 359.7 331.4 343.9 327.2ZM296.7 305.2C296.4 292.1 296.4 283 296.4 283C297.7 287.5 299.5 300.3 301.1 313C295.7 310.4 296.7 307.9 296.7 305.2Z" fill="#FFBE55"/>
<path d="M326.7 206.4C326.7 206.4 330.7 198.9 329.6 177.6C329.3 171.7 360.6 191.6 360.6 191.6C360.6 191.6 360.5 193.6 360.4 196.4C360.4 197.5 360.3 198.8 360.3 200.1V202.9C360.3 203.6 360.3 204.3 360.4 205C360.4 205.8 360.5 206.5 360.6 207.2C360.7 208.5 361.5 210.8 361.8 211.4C363.2 214.6 338.4 214.8 326.7 206.4Z" fill="#FFE3CA"/>
<path d="M359.1 212.8L353 220C353 220 343.1 218.1 340.2 212.9C337.2 207.7 359.1 212.8 359.1 212.8Z" fill="#FFE3CA"/>
<path d="M418.5 287.6C409.6 274.8 401.2 271.7 401.2 271.7C401.2 271.7 375 241 396 227.3C396 227.3 405 227.1 410 229.8C415.1 232.6 425.9 255.2 427.8 259.2C429.6 263.2 429.9 269.4 431.2 270.3C431.1 270.2 433.4 286.2 418.5 287.6Z" fill="#FFBE55"/>
<path d="M384.7 367.9C384.7 367.9 382 367.8 380.9 367.2C380.9 367.2 378.9 365.9 377.4 365.1C376.9 364.8 376.5 364.6 376.2 364.5C375 364 372.3 363.4 369.8 361.5C367.3 359.6 359.1 352 359.1 352L364.4 343.9L366.8 335.9C366.8 335.9 385.8 337.8 388.4 339.3C388.6 339.4 388.9 339.6 389.1 339.8C391.1 341.3 392 343.2 393 344.1C393.4 344.4 396.7 348 396.5 349.4C396.2 351.4 395.3 352.7 394 353.3C394 353.3 393.3 357.2 391.3 358.9C391.3 358.9 390.8 362.5 387.7 364C387.7 363.9 386.8 367.5 384.7 367.9ZM343.4 123C343.4 123 375 107 377.9 151.1C380.8 195.1 373.6 200.5 351.2 196.8C328.8 193.2 323.8 165.7 319.5 152.7C315.2 139.8 332.8 126.2 343.4 123Z" fill="#FFE3CA"/>
<path d="M336.3 152.8C335.8 149 328.2 147.7 327.7 153.4C327.2 159.2 331.4 169.2 334.2 168.1C337 167.1 337 158.1 336.3 152.8Z" fill="#FFE3CA"/>
<path d="M326.6 174C326.6 174 324.1 160.5 328.9 158.9C333.6 157.3 335.7 162.4 335.7 162.4L340.8 162.1C340.8 162.1 336.3 150.9 340.7 147.6C345 144.4 373.7 146.1 376.7 141.7C379.7 137.3 392.7 120.1 363.3 119.1C352 118.7 334.3 115.1 326.4 127.7C326.4 127.7 315.7 132.2 315.8 135.9C315.8 145.4 321.9 168.1 326.6 174Z" fill="#0B4870"/>
<path d="M373.4 335.8L359.2 360.2C359.2 360.2 321.6 350.5 312.8 348L332.9 324.1C332.8 324.2 362.4 330.9 373.4 335.8Z" fill="#FFBE55"/>
<path d="M360.5 202.6C342 200.7 334.9 186.5 334.9 186.5C346.5 198 360.4 197.7 360.4 197.7V200.5C360.4 201.2 360.4 201.9 360.5 202.6Z" fill="#FCD2B1"/>
<path d="M364.4 203.6C364.4 203.6 365.4 205.4 366.2 206C366.2 206 367.8 207 368.8 207.7C369.1 207.9 369.4 208.2 369.6 208.3C370.3 209 371.7 210.6 373.8 211.8C376 212.9 384 216.1 384 216.1L387.9 209.7L392.7 205.3C392.7 205.3 385.1 192.6 383.2 191.3L382.6 191C380.9 190.1 379.2 190.1 378.3 189.7C377.9 189.6 374.4 188.4 373.4 189C372.1 189.8 371.5 191 371.5 192C371.5 192 369 193.8 368.4 195.7C368.4 195.7 366 197.2 366.1 199.9C366.2 200.1 363.9 202 364.4 203.6Z" fill="#FFE3CA"/>
<path d="M393.4 202C393.4 202 424.4 249 426.2 262.5C428 276 419.5 281.8 412.2 277.4C405 273 381.2 217.4 381.2 217.4L393.4 202Z" fill="#FFBE55"/>
<path d="M485.6 67.7C438.4 67.7 400.2 89.8 400.2 117.1C400.2 127.7 406 137.6 415.9 145.6L414.6 156.7L425.1 151.9C440.6 160.9 462 166.4 485.6 166.4C532.8 166.4 571 144.3 571 117C571 89.7 532.8 67.7 485.6 67.7Z" fill="#0B4870"/>
<path d="M435.9 120.2C438.441 120.2 440.5 118.141 440.5 115.6C440.5 113.059 438.441 111 435.9 111C433.36 111 431.3 113.059 431.3 115.6C431.3 118.141 433.36 120.2 435.9 120.2Z" fill="white"/>
<path d="M455.8 120.2C458.34 120.2 460.4 118.141 460.4 115.6C460.4 113.059 458.34 111 455.8 111C453.259 111 451.2 113.059 451.2 115.6C451.2 118.141 453.259 120.2 455.8 120.2Z" fill="white"/>
<path d="M475.8 120.2C478.34 120.2 480.4 118.141 480.4 115.6C480.4 113.059 478.34 111 475.8 111C473.259 111 471.2 113.059 471.2 115.6C471.2 118.141 473.259 120.2 475.8 120.2Z" fill="white"/>
<path d="M495.8 120.2C498.34 120.2 500.4 118.141 500.4 115.6C500.4 113.059 498.34 111 495.8 111C493.259 111 491.2 113.059 491.2 115.6C491.2 118.141 493.259 120.2 495.8 120.2Z" fill="white"/>
<path d="M515.8 120.2C518.34 120.2 520.4 118.141 520.4 115.6C520.4 113.059 518.34 111 515.8 111C513.259 111 511.2 113.059 511.2 115.6C511.2 118.141 513.259 120.2 515.8 120.2Z" fill="white"/>
<path d="M535.7 120.2C538.241 120.2 540.3 118.141 540.3 115.6C540.3 113.059 538.241 111 535.7 111C533.16 111 531.1 113.059 531.1 115.6C531.1 118.141 533.16 120.2 535.7 120.2Z" fill="white"/>
<path d="M458.7 285.9L448.7 379.2H580.7L590.8 285.9H458.7Z" fill="#396286"/>
<path d="M460.236 379.116H438.136V370.716H460.236V379.116Z" fill="#2A94F4"/>
<path d="M512.4 331C511.3 336.2 513.8 341.1 517.8 341.9C521.8 342.7 526 339.2 527.1 334C528.2 328.8 525.7 323.9 521.7 323.1C517.6 322.3 513.5 325.8 512.4 331Z" fill="#D3D3D3"/>
</svg>
