<svg width="255" height="143" viewBox="0 0 255 143" fill="none" xmlns="http://www.w3.org/2000/svg">
<rect y="17" width="255" height="108" rx="54" fill="#1E2329"/>
<path d="M49.563 97H39.9966C39.7651 97 39.6366 96.8714 39.6108 96.6143L28.6943 42.3403C28.6429 42.1346 28.7458 42.0317 29.0029 42.0317H37.9521C38.1579 42.0317 38.2865 42.1346 38.3379 42.3403L44.8184 78.5229L51.1445 42.3403C51.196 42.1346 51.3245 42.0317 51.5303 42.0317H60.3638C60.6466 42.0317 60.7495 42.1346 60.6724 42.3403L49.9487 96.6143C49.923 96.8714 49.7944 97 49.563 97ZM56.3135 96.6143L66.1113 42.3403C66.1628 42.1346 66.2913 42.0317 66.4971 42.0317H77.9536C78.1593 42.0317 78.2879 42.1346 78.3394 42.3403L87.7515 96.6143C87.7772 96.8714 87.6743 97 87.4429 97H78.6865C78.4294 97 78.2879 96.8714 78.2622 96.6143L77.4136 90.8281H66.6514L65.8027 96.6143C65.777 96.8714 65.6484 97 65.417 97H56.6221C56.4163 97 56.3135 96.8714 56.3135 96.6143ZM71.7817 60.2002L68.2329 82.3804H75.832L72.5918 60.2002L72.1289 57.2686L71.7817 60.2002ZM101.291 97H93.3833C92.9718 97 92.7661 96.82 92.7661 96.46L92.689 42.6489C92.689 42.2375 92.8947 42.0317 93.3062 42.0317H100.442L113.789 73.1611L113.403 42.6489C113.403 42.2375 113.635 42.0317 114.098 42.0317H121.928C122.237 42.0317 122.391 42.2375 122.391 42.6489L122.468 96.5371C122.468 96.8457 122.34 97 122.083 97H115.139L101.445 67.915L102.024 96.3828C102.024 96.7943 101.78 97 101.291 97ZM155.179 97H129.643C129.437 97 129.334 96.8714 129.334 96.6143L129.412 42.3403C129.412 42.1346 129.514 42.0317 129.72 42.0317H155.102C155.308 42.0317 155.411 42.1603 155.411 42.4175V51.251C155.411 51.4567 155.308 51.5596 155.102 51.5596H138.901V63.9033H155.102C155.308 63.9033 155.411 64.0062 155.411 64.2119L155.488 73.1611C155.488 73.3669 155.385 73.4697 155.179 73.4697H138.901V87.2793H155.179C155.385 87.2793 155.488 87.4079 155.488 87.665V96.6914C155.488 96.8971 155.385 97 155.179 97ZM175.932 97.7715C173.129 97.7715 170.545 97.0514 168.179 95.6113C165.839 94.1712 163.961 92.2554 162.547 89.8638C161.158 87.4465 160.464 84.7977 160.464 81.9175V78.2915C160.464 78.0086 160.592 77.8672 160.85 77.8672H169.722C169.927 77.8672 170.03 78.0086 170.03 78.2915V81.9175C170.03 83.6405 170.609 85.132 171.766 86.3921C172.923 87.6265 174.312 88.2437 175.932 88.2437C177.578 88.2437 178.979 87.6136 180.137 86.3535C181.294 85.0677 181.873 83.589 181.873 81.9175C181.873 79.9888 180.612 78.3044 178.092 76.8643C177.681 76.6071 177.141 76.2985 176.472 75.9385C175.829 75.5527 175.058 75.1156 174.158 74.627C173.258 74.1383 172.383 73.6626 171.535 73.1997C170.686 72.7111 169.863 72.2482 169.066 71.811C166.186 70.1138 164.038 67.9922 162.624 65.4463C161.235 62.8747 160.541 59.9945 160.541 56.8057C160.541 53.874 161.261 51.2253 162.701 48.8594C164.141 46.5192 166.019 44.6676 168.333 43.3047C170.673 41.916 173.206 41.2217 175.932 41.2217C178.735 41.2217 181.307 41.916 183.647 43.3047C185.987 44.7191 187.852 46.5964 189.24 48.9365C190.655 51.2767 191.362 53.8997 191.362 56.8057V63.2861C191.362 63.4919 191.259 63.5947 191.053 63.5947H182.181C181.975 63.5947 181.873 63.4919 181.873 63.2861L181.795 56.8057C181.795 54.9541 181.217 53.4497 180.06 52.2925C178.902 51.1353 177.527 50.5566 175.932 50.5566C174.312 50.5566 172.923 51.1738 171.766 52.4082C170.609 53.6426 170.03 55.1084 170.03 56.8057C170.03 58.5286 170.39 59.9688 171.11 61.126C171.856 62.2832 173.206 63.389 175.161 64.4434C175.366 64.5462 175.842 64.8034 176.588 65.2148C177.334 65.6263 178.157 66.0892 179.057 66.6035C179.982 67.0921 180.818 67.5422 181.564 67.9536C182.31 68.3394 182.76 68.5708 182.914 68.6479C185.537 70.1138 187.607 71.9139 189.125 74.0483C190.667 76.1828 191.439 78.8058 191.439 81.9175C191.439 84.9263 190.745 87.6265 189.356 90.0181C187.942 92.4097 186.064 94.2998 183.724 95.6885C181.384 97.0771 178.787 97.7715 175.932 97.7715ZM192.635 96.6143L202.433 42.3403C202.484 42.1346 202.613 42.0317 202.818 42.0317H214.275C214.481 42.0317 214.609 42.1346 214.661 42.3403L224.073 96.6143C224.098 96.8714 223.996 97 223.764 97H215.008C214.751 97 214.609 96.8714 214.583 96.6143L213.735 90.8281H202.973L202.124 96.6143C202.098 96.8714 201.97 97 201.738 97H192.943C192.738 97 192.635 96.8714 192.635 96.6143ZM208.103 60.2002L204.554 82.3804H212.153L208.913 60.2002L208.45 57.2686L208.103 60.2002Z" fill="white"/>
</svg>
